# xmcd
#
# Track frame offsets:
#	150
#	15423
#	25991
#	41833
#	59548
#	73543
#	86914
#	102514
#	115160
#	134181
#	146315
#	159438
#	172618
#	185044
#	199806
#
# Disc length: 2876 seconds
#
# Revision: 1
# Processed by: cddbd v1.5.2PL0 Copyright (c) Steve Scherf et al.
# Submitted via: audiograbber 1.83.01
#
DISCID=d50b3a0f
DTITLE=Various Artist - Country CD1
DYEAR=2009
DGENRE=Country
TTITLE0=D. Von Tress - No Rompas Mi Corazon
TTITLE1=Freddy Fender - Jambalaya
TTITLE2=Dwight Yoakam - Honky Tonk Man
TTITLE3=Alan Jackson J. McBridge - Chattahoochee
TTITLE4=J.S. Anderson M. Hall S.Dukes - I like It, I Love It
TTITLE5=R. Dunn - Little Miss Honky Tonk
TTITLE6=P. Howell R. Seals - God Blessed Texas
TTITLE7=J.Greenbaum S. Whipple T. Martin - Third Rock From The Sun
TTITLE8=R. Lang S Twain - Whose Bed Have Your Boots Been Under
TTITLE9=G. Burr - I Try To Think About Elvis
TTITLE10=A. Randall M. Berg - XXX'S and OOO'S ( An American Girl)
TTITLE11=J. Leary P. Tillis - Mi Vida Loca (My Crazy Life)
TTITLE12=F. Dycus J. Lauferdale - Gonna Get A Life
TTITLE13=D. Berg D. Johnson P. Bunch - I Want My Goodbye Back
TTITLE14=P. Reiniz - Old Pop In An Oak
EXTD=
EXTT0=
EXTT1=
EXTT2=
EXTT3=
EXTT4=
EXTT5=
EXTT6=
EXTT7=
EXTT8=
EXTT9=
EXTT10=
EXTT11=
EXTT12=
EXTT13=
EXTT14=
PLAYORDER=
